<svg width="88" height="97" viewBox="0 0 88 97" fill="none" xmlns="http://www.w3.org/2000/svg">
<path d="M66.4742 73.4154C65.2469 73.4154 64.0197 73.516 62.8125 73.7373C58.3661 69.4921 52.612 66.8364 46.536 66.1724V63.7581L56.2737 57.9637C59.6739 59.694 63.2752 60.6195 66.7559 60.6195C70.156 60.6195 73.3148 59.7745 76.1516 58.0845C82.3685 54.4026 85.8692 47.1597 85.5272 38.7498L85.4668 37.1201L84.0585 36.2751C80.1956 33.9614 76.0108 32.7341 71.9869 32.7341C68.5867 32.7341 65.428 33.5791 62.5912 35.2692C56.8371 38.6894 53.4168 45.1477 53.2156 52.773L46.5762 56.7163V42.9749C54.5636 38.0657 59.2715 30.4606 59.2715 22.3123C59.2715 13.6409 53.9399 5.57305 45.0069 0.744415L43.5181 0L42.0896 0.784653C33.1566 5.61329 27.8049 13.6811 27.8049 22.3526C27.8049 30.5009 32.5128 38.106 40.5002 43.0151V56.7365L33.8608 52.7931C33.6596 45.1679 30.2393 38.7096 24.4852 35.2893C21.6685 33.6194 18.5098 32.7542 15.0895 32.7542C11.0656 32.7542 6.88081 33.9815 3.0179 36.2952L1.60954 37.1403L1.54919 38.7699C1.20716 47.1798 4.70792 54.4227 10.9248 58.1046C13.7415 59.7745 16.9002 60.6396 20.3205 60.6396C23.8011 60.6396 27.3824 59.7342 30.8027 57.9839L40.5404 63.7782V66.1925C34.4644 66.8565 28.7103 69.5122 24.2639 73.7574C23.0567 73.5361 21.8295 73.4355 20.6022 73.4355C9.23477 73.4154 0 82.6501 0 93.9773V96.9952H87.0361V93.9773C87.0361 82.6501 77.8215 73.4154 66.4742 73.4154ZM65.6493 40.4801C67.5204 39.3735 69.6531 38.8102 71.9467 38.8102C74.4012 38.8102 76.9765 39.454 79.4713 40.6812C79.2701 46.1135 76.9161 50.6202 73.0532 52.9138C71.1821 54.0204 69.0495 54.5837 66.7559 54.5837C65.4682 54.5837 64.1605 54.4026 62.8527 54.0606L70.7596 49.3728L67.6814 44.182L59.7544 48.8899C60.6798 45.188 62.732 42.2103 65.6493 40.4801ZM20.3004 54.5837C17.9867 54.5837 15.8741 54.0204 14.003 52.9138C10.12 50.6001 7.78617 46.1135 7.58498 40.6812C10.0798 39.454 12.655 38.8102 15.1096 38.8102C17.4233 38.8102 19.5359 39.3735 21.4069 40.4801C24.3242 42.2103 26.3764 45.2081 27.3019 48.8899L19.4151 44.2021L16.2966 49.3728L24.2035 54.0606C22.8958 54.4227 21.5679 54.5837 20.3004 54.5837ZM33.8407 22.3526C33.8407 16.3771 37.4219 10.7236 43.5181 6.92104C49.6142 10.7236 53.1955 16.3771 53.1955 22.3526C53.1955 27.2617 50.7811 31.9495 46.536 35.5709V22.3526H40.5002V35.5709C36.2751 31.9495 33.8407 27.2415 33.8407 22.3526ZM6.3577 90.9594C7.74594 84.4005 13.6007 79.4512 20.5619 79.4512C21.8496 79.4512 23.1372 79.6322 24.4047 79.9743L26.1752 80.4571L27.4226 79.1091C31.5672 74.6225 37.442 72.0473 43.5382 72.0473C49.6343 72.0473 55.5092 74.6225 59.6538 79.1091L60.9012 80.4571L62.6717 79.9743C63.9191 79.6322 65.2067 79.4512 66.5145 79.4512C73.4958 79.4512 79.3305 84.4005 80.7187 90.9594H6.3577Z" fill="#FFBE5A"/>
</svg>
