<svg width="97" height="90" viewBox="0 0 97 90" fill="none" xmlns="http://www.w3.org/2000/svg">
<path d="M87.8753 9.11519C77.193 -1.52695 60.6771 -2.65909 48.5174 4.7187C36.1115 -2.71569 19.5009 -1.30052 9.04586 9.11519C-3.47366 21.5876 -2.73499 42.0228 9.63301 54.3254L17.8152 62.4768C17.8152 62.4768 17.8152 62.4768 17.8342 62.4957C19.4062 64.0618 21.4517 64.892 23.5162 65.0052C23.6109 67.062 24.4632 69.0998 26.0353 70.6659C27.5695 72.1943 29.5771 73.0812 31.7174 73.1755C31.831 75.3077 32.7023 77.3078 34.2364 78.8362C35.7706 80.3646 37.7783 81.2515 39.9185 81.3458C40.0132 83.4025 40.8655 85.4404 42.4376 87.0065C45.8089 90.3652 51.2827 90.3652 54.654 87.0065L62.8552 78.8362C64.3893 77.3078 65.2795 75.3077 65.3742 73.1755C67.4387 73.0812 69.4843 72.2321 71.0563 70.6659C72.5905 69.1376 73.4807 67.1374 73.5754 65.0052C75.7156 64.9109 77.7233 64.0241 79.2575 62.4957C80.7916 60.9673 81.6818 58.9672 81.7765 56.835C83.9168 56.7406 85.9244 55.8538 87.4586 54.3254C99.9402 41.8718 100.243 21.4367 87.8753 9.11519ZM26.0353 58.4954C24.8799 59.6464 23.0048 59.6464 21.8495 58.4954C20.6941 57.3444 20.6941 55.4764 21.8495 54.3254L30.562 45.6456C31.7174 44.4946 33.5925 44.4946 34.7478 45.6456C35.9032 46.7966 35.9032 48.6647 34.7478 49.8157C32.797 51.7592 27.1717 57.3633 26.0353 58.4954ZM30.0506 66.6657C28.8953 65.5147 28.8953 63.6467 30.0506 62.4957L38.2518 54.3254C39.4071 53.1744 41.2822 53.1744 42.4376 54.3254C43.5929 55.4764 43.5929 57.3444 42.4376 58.4954L34.2364 66.6657C33.0811 67.8167 31.206 67.8167 30.0506 66.6657ZM38.2518 74.836C37.0964 73.685 37.0964 71.817 38.2518 70.6659L46.4529 62.4957C47.6083 61.3447 49.4833 61.3447 50.6387 62.4957C51.7941 63.6467 51.7941 65.5147 50.6387 66.6657L42.4376 74.836C41.2822 75.987 39.4071 75.987 38.2518 74.836ZM58.8209 74.836L50.6198 83.0063C49.4644 84.1573 47.5893 84.1573 46.434 83.0063C45.2786 81.8553 45.2786 79.9872 46.434 78.8362L54.6351 70.6659C55.7905 69.5149 57.6655 69.5149 58.8209 70.6659C59.9763 71.817 59.9763 73.685 58.8209 74.836ZM83.4243 50.3251C82.269 51.4762 80.3939 51.4762 79.2385 50.3251L62.8362 33.9846L58.8209 37.9848L75.2232 54.3254C76.3785 55.4764 76.3785 57.3444 75.2232 58.4954C74.0678 59.6464 72.1927 59.6464 71.0374 58.4954L54.6351 42.1549L50.6198 46.1551L67.022 62.4957C68.1774 63.6467 68.1774 65.5147 67.022 66.6657C65.8667 67.8167 63.9916 67.8167 62.8362 66.6657C61.3021 65.1373 59.2944 64.2505 57.1542 64.1561C57.0595 62.0239 56.1693 60.0238 54.6351 58.4954C53.1009 56.967 51.0933 56.0802 48.953 55.9858C48.8583 53.9291 48.006 51.8913 46.434 50.3251C44.9945 48.8911 43.1573 48.0609 41.2633 47.8533C41.3012 45.6079 40.4488 43.3436 38.7442 41.6454C35.3728 38.2867 29.8991 38.2867 26.5277 41.6454L17.8152 50.3251C17.0765 51.061 16.5083 51.8913 16.0916 52.7781L13.6294 50.3251C3.4206 40.1547 2.81451 23.3047 13.0423 13.1154C20.9025 5.28477 33.422 3.52995 43.4982 8.45477C43.1194 8.79441 42.7596 9.13405 42.3997 9.49257L30.5052 21.3423C26.9065 24.9274 26.9065 30.7391 30.5052 34.3242C33.6114 37.4187 38.498 37.8716 42.1345 35.4752L60.4498 23.3047L83.4054 46.174C84.5797 47.3061 84.5797 49.1741 83.4243 50.3251ZM87.4397 42.1549L61.2074 16.0212L39.0094 30.758C37.6078 31.6825 35.7327 31.4938 34.5584 30.324C33.1758 28.9465 33.1758 26.72 34.5584 25.3425L46.4529 13.4928C56.6807 3.30353 73.6322 2.92615 83.8599 13.1154C92.099 21.3234 93.3111 33.7393 88.4624 43.3813C88.1594 42.9473 87.8185 42.5322 87.4397 42.1549Z" fill="#FF7D4E"/>
</svg>
