<svg width="84" height="107" viewBox="0 0 84 107" fill="none" xmlns="http://www.w3.org/2000/svg">
<path d="M80.2367 86.5189V24.6604H55.1151V13.2525C55.1151 5.95459 49.1806 0 41.8626 0C34.5447 0 28.6101 5.93455 28.6101 13.2525V24.6604H3.48855V86.5389L0 106.909H83.7252L80.2367 86.5189ZM34.6249 13.2525C34.6249 9.2627 37.8728 6.01474 41.8626 6.01474C45.8524 6.01474 49.1004 9.2627 49.1004 13.2525V24.6604H34.6449L34.6249 13.2525ZM7.1375 100.894L9.50329 87.0401V30.6752H74.242V87.0401L76.5877 100.894H7.1375Z" fill="#FF7D4E"/>
<path d="M50.6235 49.2963C49.5208 45.507 46.0122 42.7202 41.862 42.7202C37.7118 42.7202 34.2032 45.507 33.1005 49.2963C29.9328 50.8 27.2261 53.1057 25.2012 56.0128C22.8153 59.4212 21.5723 63.431 21.5723 67.6213C21.5723 78.8087 30.6746 87.931 41.882 87.931C53.0895 87.931 62.1718 78.8087 62.1718 67.6012C62.1718 63.431 60.9087 59.4212 58.5429 55.9928C56.4979 53.1057 53.7912 50.8 50.6235 49.2963ZM38.7544 51.8426C38.7544 50.1183 40.1578 48.735 41.862 48.735C43.5662 48.735 44.9696 50.1384 44.9696 51.8426V55.8725H41.862C40.1378 55.8725 38.7544 54.469 38.7544 52.7648V51.8426ZM41.862 81.8962C33.9827 81.8962 27.567 75.4805 27.567 67.6012C27.567 63.03 29.7924 58.7595 33.3812 56.113C34.7245 59.4813 38.0126 61.8671 41.862 61.8671H50.9844V56.6143C54.1722 59.2808 56.157 63.3107 56.157 67.6012C56.157 75.4805 49.7413 81.8962 41.862 81.8962Z" fill="#FF7D4E"/>
<path d="M41.8627 69.867C40.8602 69.867 40.0382 69.0449 40.0382 68.0425H34.0234C34.0234 72.3731 37.5521 75.8817 41.8627 75.8817C46.1732 75.8817 49.7019 72.353 49.7019 68.0425H43.6871C43.6871 69.0449 42.8651 69.867 41.8627 69.867Z" fill="#FF7D4E"/>
</svg>
