<?xml version="1.0" encoding="utf-8"?><svg viewBox="0 0 279 279" xmlns="http://www.w3.org/2000/svg" xmlns:xlink="http://www.w3.org/1999/xlink"><style>:root>svg{display:none}:root>svg:target{display:block}</style><svg fill="none" viewBox="0 0 9 15" id="header--arrow" xmlns="http://www.w3.org/2000/svg"><path opacity=".3" fill-rule="evenodd" clip-rule="evenodd" d="M1.464 0 0 1.457 6.072 7.5 0 13.543 1.464 15 9 7.5 1.464 0Z" fill="#000"/></svg><svg fill="none" viewBox="0 0 32 34" id="header--back_arrow" xmlns="http://www.w3.org/2000/svg"><path fill-rule="evenodd" clip-rule="evenodd" d="M19.536 27.245 21 25.726l-8.072-8.417L21 8.89 19.536 7.37 10 17.308l9.536 9.938Z" fill="#000"/></svg><svg fill="none" viewBox="0 0 32 32" id="header--cart" xmlns="http://www.w3.org/2000/svg"><path d="M26.997 27.116v-.015L25.6 10.226a1.917 1.917 0 0 0-1.92-1.792h-1.876C21.63 5.407 19.093 3 15.995 3 12.9 3 10.36 5.407 10.19 8.434H8.316c-1.019 0-1.859.787-1.92 1.792L5.002 27.091v.025A1.794 1.794 0 0 0 6.805 29h18.39a1.83 1.83 0 0 0 1.31-.559c.334-.355.518-.837.492-1.325ZM15.995 4.828c2.08 0 3.785 1.59 3.954 3.606H12.04c.17-2.016 1.88-3.606 3.955-3.606ZM6.846 27.172 8.24 10.363v-.025c0-.04.036-.076.082-.076h15.361c.041 0 .077.03.082.076v.015l1.383 16.819H6.846Z" fill="#000"/></svg><svg fill="none" viewBox="0 0 32 32" id="header--profile" xmlns="http://www.w3.org/2000/svg"><path d="M25.19 19.9a12.972 12.972 0 0 0-5.218-3.161c2.125-1.315 3.539-3.65 3.539-6.307C23.51 6.335 20.142 3 16.003 3c-4.14 0-7.509 3.335-7.509 7.432 0 2.657 1.414 4.992 3.54 6.307A12.9 12.9 0 0 0 6.814 19.9 12.69 12.69 0 0 0 3 29h1.913c0-6.054 4.974-10.977 11.09-10.977S27.093 22.946 27.093 29h1.912a12.733 12.733 0 0 0-3.815-9.1Zm-14.788-9.468c0-3.05 2.513-5.538 5.6-5.538 3.083 0 5.596 2.488 5.596 5.538 0 3.051-2.513 5.54-5.595 5.54-3.088.004-5.601-2.484-5.601-5.54Z" fill="#000"/></svg><svg fill="none" viewBox="0 0 103 84" id="healthy--one-item" xmlns="http://www.w3.org/2000/svg"><path d="M95.615 19.999V0H50.226v19.999l-7.142 12.353c-2.334.14-4.567.503-6.62.825-.583.1-1.166.18-1.73.261v-5.452c0-4.93 4.024-8.953 8.953-8.953v-6.036c-5.291 0-9.938 2.756-12.594 6.88a14.14 14.14 0 0 0-1.49-1.77c-2.735-2.716-6.78-4.426-11.729-4.929-3.56-.362-6.398 0-6.518.02l-2.274.302-.302 2.274c-.02.12-.382 2.957-.02 6.518.443 4.326 1.831 7.988 4.004 10.663-4.225 1.107-7.464 3.622-9.677 7.465-3.521 6.156-4.085 16.115-1.409 25.39a24.942 24.942 0 0 0 9.074 13.138c4.406 3.3 9.637 5.05 15.15 5.05h77.097V32.754L95.615 20ZM69.38 17.786V6.035h7.082v11.75H69.38Zm13.118-11.75h7.082v11.75h-7.082V6.035Zm-26.236 0h7.082v11.75h-7.082V6.035Zm-38.87 13.158c2.434.261 5.774 1.046 7.947 3.199 2.897 2.897 3.36 7.766 3.36 10.703h-.02c-2.938 0-7.827-.483-10.684-3.34-2.897-2.897-3.36-7.766-3.36-10.703.805 0 1.73.02 2.757.14Zm8.51 58.789c-8.51 0-16.096-5.674-18.43-13.823-2.212-7.665-1.87-15.994.846-20.722 3.46-6.056 9.798-5.553 17.725-4.286 2.072.322 4.024.644 5.694.644s3.621-.322 5.693-.644c1.71-.282 3.561-.563 5.432-.724v39.555h-16.96Zm71.061 0H48.878v-43.6l6.096-10.562h35.873l6.096 10.563.02 43.599Z" fill="#7E70D8"/><path d="m70.407 38.388-10 9.999c-4.144 4.145-4.144 10.885 0 15.05a10.602 10.602 0 0 0 7.525 3.118c2.716 0 5.452-1.047 7.525-3.119l9.999-10c4.144-4.144 4.144-10.884 0-15.048-4.165-4.165-10.905-4.165-15.05 0ZM64.673 59.15a4.602 4.602 0 0 1 0-6.499l2.856-2.857 6.499 6.499-2.857 2.857a4.602 4.602 0 0 1-6.498 0Zm16.497-10-2.857 2.857-6.498-6.498 2.857-2.857a4.567 4.567 0 0 1 3.26-1.348c1.186 0 2.353.443 3.258 1.348a4.62 4.62 0 0 1-.02 6.498Z" fill="#7E70D8"/></svg><svg fill="none" viewBox="0 0 84 107" id="healthy--three-item" xmlns="http://www.w3.org/2000/svg"><path d="M80.237 86.519V24.66H55.115V13.252C55.115 5.955 49.181 0 41.863 0 34.545 0 28.61 5.935 28.61 13.252V24.66H3.49V86.54L0 106.909h83.725l-3.488-20.39ZM34.625 13.252c0-3.99 3.248-7.237 7.238-7.237S49.1 9.263 49.1 13.252V24.66H34.645l-.02-11.408ZM7.137 100.894 9.503 87.04V30.675h64.739V87.04l2.346 13.854H7.138Z" fill="#FF7D4E"/><path d="M50.623 49.296c-1.102-3.789-4.61-6.576-8.761-6.576-4.15 0-7.659 2.787-8.762 6.576a20.145 20.145 0 0 0-7.899 6.717c-2.386 3.408-3.629 7.418-3.629 11.608 0 11.188 9.103 20.31 20.31 20.31 11.208 0 20.29-9.122 20.29-20.33 0-4.17-1.263-8.18-3.63-11.608-2.044-2.887-4.75-5.193-7.919-6.697Zm-11.869 2.547a3.11 3.11 0 0 1 3.108-3.108 3.123 3.123 0 0 1 3.108 3.108v4.03h-3.108a3.11 3.11 0 0 1-3.108-3.108v-.922Zm3.108 30.053c-7.88 0-14.295-6.415-14.295-14.295 0-4.571 2.225-8.841 5.814-11.488 1.343 3.368 4.632 5.754 8.481 5.754h9.122v-5.253c3.188 2.667 5.173 6.697 5.173 10.987 0 7.88-6.416 14.295-14.295 14.295Z" fill="#FF7D4E"/><path d="M41.863 69.867a1.831 1.831 0 0 1-1.825-1.825h-6.015c0 4.331 3.53 7.84 7.84 7.84 4.31 0 7.839-3.529 7.839-7.84h-6.015a1.831 1.831 0 0 1-1.824 1.825Z" fill="#FF7D4E"/></svg><svg fill="none" viewBox="0 0 88 97" id="healthy--two-item" xmlns="http://www.w3.org/2000/svg"><path d="M66.474 73.415c-1.227 0-2.454.101-3.662.322a28.031 28.031 0 0 0-16.276-7.565v-2.414l9.738-5.794c3.4 1.73 7.001 2.656 10.482 2.656 3.4 0 6.559-.845 9.396-2.535 6.216-3.682 9.717-10.925 9.375-19.335l-.06-1.63-1.409-.845c-3.862-2.314-8.047-3.54-12.071-3.54-3.4 0-6.559.844-9.396 2.534-5.754 3.42-9.174 9.879-9.375 17.504l-6.64 3.943V42.975c7.988-4.91 12.696-12.514 12.696-20.663 0-8.671-5.332-16.739-14.265-21.568L43.518 0 42.09.785C33.157 5.613 27.805 13.68 27.805 22.353c0 8.148 4.708 15.753 12.695 20.662v13.721l-6.64-3.943c-.2-7.625-3.62-14.083-9.375-17.504-2.816-1.67-5.975-2.535-9.396-2.535-4.023 0-8.208 1.227-12.071 3.541l-1.408.845-.06 1.63c-.343 8.41 3.158 15.653 9.375 19.335 2.816 1.67 5.975 2.535 9.395 2.535 3.481 0 7.062-.906 10.483-2.656l9.737 5.794v2.414a28.031 28.031 0 0 0-16.276 7.565 20.31 20.31 0 0 0-3.662-.322C9.235 73.416 0 82.65 0 93.978v3.018h87.036v-3.018c0-11.327-9.215-20.562-20.562-20.562ZM65.65 40.48c1.871-1.106 4.004-1.67 6.298-1.67 2.454 0 5.03.644 7.524 1.871-.2 5.433-2.555 9.94-6.418 12.233-1.87 1.106-4.004 1.67-6.297 1.67-1.288 0-2.596-.181-3.903-.523l7.907-4.688-3.079-5.191-7.927 4.708c.926-3.702 2.978-6.68 5.895-8.41ZM20.3 54.584c-2.313 0-4.426-.564-6.297-1.67-3.883-2.314-6.217-6.8-6.418-12.233 2.495-1.227 5.07-1.87 7.525-1.87 2.313 0 4.426.563 6.297 1.67 2.917 1.73 4.97 4.727 5.895 8.409l-7.887-4.688-3.118 5.17 7.906 4.689a14.683 14.683 0 0 1-3.903.523Zm13.54-32.231c0-5.976 3.582-11.63 9.678-15.432 6.096 3.803 9.678 9.456 9.678 15.432 0 4.909-2.415 9.596-6.66 13.218V22.353H40.5V35.57c-4.225-3.621-6.66-8.33-6.66-13.218ZM6.359 90.959C7.746 84.4 13.6 79.451 20.562 79.451c1.288 0 2.575.181 3.843.523l1.77.483 1.248-1.348a22.009 22.009 0 0 1 16.115-7.062 22.01 22.01 0 0 1 16.116 7.062l1.247 1.348 1.77-.483a14.508 14.508 0 0 1 3.843-.523c6.982 0 12.817 4.95 14.205 11.508H6.358Z" fill="#FFBE5A"/></svg><svg fill="none" viewBox="0 0 279 141" id="hero--ellipse-red" xmlns="http://www.w3.org/2000/svg"><path d="M250 0c0 61.856-49.473 112-110.5 112C78.472 112 29 61.856 29 0" stroke="#E99478" stroke-width="58"/></svg><svg fill="none" viewBox="0 0 63 76" id="hero--ellipse-yellow" xmlns="http://www.w3.org/2000/svg"><path fill-rule="evenodd" clip-rule="evenodd" d="M76 27.899c-26.566 0-48.101 21.535-48.101 48.101H0C0 34.026 34.026 0 76 0v27.899Z" fill="#FFCA78"/></svg><svg fill="none" viewBox="0 0 9 15" id="hero--hero-arrow" xmlns="http://www.w3.org/2000/svg"><path d="m.707 13.855 6.574-6.574L.707.707" stroke="#F27E58" stroke-width="2"/></svg><svg fill="none" viewBox="0 0 279 141" id="hero--llipse-hero" xmlns="http://www.w3.org/2000/svg"><path d="M250 0c0 61.856-49.473 112-110.5 112C78.472 112 29 61.856 29 0" stroke="#E99478" stroke-width="58"/></svg><svg fill="none" viewBox="0 0 42 50" id="logo" xmlns="http://www.w3.org/2000/svg"><path fill-rule="evenodd" clip-rule="evenodd" d="M15.328 21.166h11.343v7.822A5.68 5.68 0 0 1 21 34.663a5.68 5.68 0 0 1-5.672-5.675v-7.822Z" fill="#FF7D4E"/><path fill-rule="evenodd" clip-rule="evenodd" d="M34.336 21.166v7.822c0 7.362-5.978 13.343-13.336 13.343-7.358 0-13.336-5.981-13.336-13.343v-7.822H0v7.822C0 40.583 9.412 50 21 50s21-9.417 21-21.012v-7.822h-7.664Z" fill="#725CF0"/><path fill-rule="evenodd" clip-rule="evenodd" d="M21 0C13.644 0 7.666 5.982 7.666 13.344v7.822h7.664v-7.822a5.68 5.68 0 0 1 5.672-5.675 5.68 5.68 0 0 1 5.671 5.675v7.822h7.665v-7.822C34.337 5.982 28.358 0 21 0Z" fill="#FDC672"/></svg><svg fill="none" viewBox="0 0 99 99" id="tell-us--Group" xmlns="http://www.w3.org/2000/svg"><path d="M90.317 5.8a8.475 8.475 0 0 0-3.21.62C86.1 2.726 82.715 0 78.712 0c-4.797 0-8.703 3.906-8.703 8.701v11.737a14.15 14.15 0 0 0-9.264-3.403c-5.802 0-9.476 2.378-11.643 4.583-2.224-2.205-5.956-4.583-11.758-4.583-3.075 0-5.976.947-8.355 2.726V8.701C28.99 3.906 25.103 0 20.307 0c-4.004 0-7.388 2.726-8.394 6.42a8.476 8.476 0 0 0-3.21-.62C3.907 5.8 0 9.708 0 14.503v26.2c.02 8.527 3.849 16.474 10.482 21.811 4.39 3.558 6.924 8.817 6.924 14.483V99h64.208V76.996a18.513 18.513 0 0 1 6.923-14.464C95.171 57.196 98.981 49.23 99 40.722v-26.2C99 9.706 95.113 5.8 90.317 5.8ZM75.812 8.702c0-1.605 1.295-2.9 2.9-2.9a2.897 2.897 0 0 1 2.902 2.9v23.203a8.78 8.78 0 0 0-5.802 0V8.701Zm-58.426 0c0-1.605 1.316-2.9 2.92-2.9a2.897 2.897 0 0 1 2.902 2.9v20.4c-.174.87-.29 1.779-.348 2.687a8.68 8.68 0 0 0-5.474.116V8.701ZM46.61 93.2H23.208V81.211h23.4v11.988Zm0-17.789h-23.46c-.425-6.806-3.674-13.09-9.031-17.402-5.26-4.235-8.316-10.558-8.335-17.306v-26.18c0-1.606 1.315-2.901 2.92-2.901s2.9 1.295 2.9 2.9v25.62c0 2.224.852 4.448 2.554 6.15l10.907 10.905 4.1-4.1-10.907-10.944a2.917 2.917 0 0 1 0-4.099 2.9 2.9 0 0 1 4.1 0l14.002 14 .077-.078 5.918 5.859a14.392 14.392 0 0 1 4.255 10.248v7.328Zm-.155-21.656L29.532 37.009a12.548 12.548 0 0 1-.542-1.566v-5.704c1.045-4.08 4.313-6.903 8.355-6.903 6.595 0 8.974 4.486 9.167 4.853l2.708 6.458 2.591-6.535c.174-.368 2.398-4.796 8.935-4.796 4.99 0 8.896 4.312 8.896 9.823 0 1.972-.502 3.79-1.547 5.704l-9.728 9.61.02.02-5.822 5.78a20.966 20.966 0 0 0-3.055 3.887 20.97 20.97 0 0 0-3.056-3.886Zm29.358 39.445H52.41V81.211h23.4v11.988Zm17.405-52.69v.174a22.201 22.201 0 0 1-8.316 17.306C79.544 62.3 76.295 68.585 75.87 75.39H52.39V68.1c0-3.867 1.528-7.521 4.255-10.248l19.997-19.8.02-.02a2.919 2.919 0 0 1 4.1 0 2.917 2.917 0 0 1 0 4.1L69.855 53.038l4.1 4.1 10.908-10.906c1.702-1.701 2.514-3.925 2.533-6.149V14.502c0-1.605 1.315-2.9 2.92-2.9 1.606 0 2.901 1.295 2.901 2.9v26.007Z" fill="#FFBE5A"/><path d="M75.494 31.918a15.748 15.748 0 0 0-.35-2.718c-1.439-6.471-5.814-9.443-5.814-9.443C66.938 17.958 64.022 17 60.93 17c-5.834 0-9.587 2.405-11.823 4.634l-.097.117-.117-.117C46.657 19.404 42.903 17 37.07 17c-3.092 0-6.008.958-8.4 2.757 0 0-4.375 2.972-5.814 9.443a20.75 20.75 0 0 0-.35 2.718S22.31 34.46 22 38.253l14.078 14.156.078-.079 12.776 12.553.039.097.02-.02.019.02.039-.097L61.824 52.33l.078.079 14.079-14.156-.487-6.335Zm-6.164 3.676a10.175 10.175 0 0 1-.544 1.584L51.77 54.11a21.229 21.229 0 0 0-2.78 3.46c-.798-1.231-1.712-2.405-2.781-3.46L29.195 37.178a12.735 12.735 0 0 1-.545-1.584v-5.748c1.07-4.126 4.356-6.98 8.42-6.98 6.631 0 9.023 4.536 9.217 4.907l2.606 6.257.117.273v-.02.02l.116-.273 2.606-6.257c.194-.371 2.586-4.907 9.217-4.907 4.084 0 7.35 2.854 8.4 6.98v5.748h-.019Z" fill="#FF7D4E"/></svg><svg fill="none" viewBox="0 0 141 279" id="tell-us--ellipse-yellow" xmlns="http://www.w3.org/2000/svg"><path d="M141 250c-61.856 0-112-49.473-112-110.5C29 78.472 79.144 29 141 29" stroke="#FFCA78" stroke-width="58"/></svg></svg>