<?xml version="1.0" encoding="utf-8"?><svg viewBox="0 0 42 50" xmlns="http://www.w3.org/2000/svg" xmlns:xlink="http://www.w3.org/1999/xlink"><style>:root>svg{display:none}:root>svg:target{display:block}</style><svg fill="none" viewBox="0 0 32 32" id="header--cart" xmlns="http://www.w3.org/2000/svg"><path d="M26.997 27.116v-.015L25.6 10.226a1.917 1.917 0 0 0-1.92-1.792h-1.876C21.63 5.407 19.093 3 15.995 3 12.9 3 10.36 5.407 10.19 8.434H8.316c-1.019 0-1.859.787-1.92 1.792L5.002 27.091v.025A1.794 1.794 0 0 0 6.805 29h18.39a1.83 1.83 0 0 0 1.31-.559c.334-.355.518-.837.492-1.325ZM15.995 4.828c2.08 0 3.785 1.59 3.954 3.606H12.04c.17-2.016 1.88-3.606 3.955-3.606ZM6.846 27.172 8.24 10.363v-.025c0-.04.036-.076.082-.076h15.361c.041 0 .077.03.082.076v.015l1.383 16.819H6.846Z" fill="#000"/></svg><svg fill="none" viewBox="0 0 32 32" id="header--profile" xmlns="http://www.w3.org/2000/svg"><path d="M25.19 19.9a12.972 12.972 0 0 0-5.218-3.161c2.125-1.315 3.539-3.65 3.539-6.307C23.51 6.335 20.142 3 16.003 3c-4.14 0-7.509 3.335-7.509 7.432 0 2.657 1.414 4.992 3.54 6.307A12.9 12.9 0 0 0 6.814 19.9 12.69 12.69 0 0 0 3 29h1.913c0-6.054 4.974-10.977 11.09-10.977S27.093 22.946 27.093 29h1.912a12.733 12.733 0 0 0-3.815-9.1Zm-14.788-9.468c0-3.05 2.513-5.538 5.6-5.538 3.083 0 5.596 2.488 5.596 5.538 0 3.051-2.513 5.54-5.595 5.54-3.088.004-5.601-2.484-5.601-5.54Z" fill="#000"/></svg><svg fill="none" viewBox="0 0 42 50" id="logo" xmlns="http://www.w3.org/2000/svg"><path fill-rule="evenodd" clip-rule="evenodd" d="M15.328 21.166h11.343v7.822A5.68 5.68 0 0 1 21 34.663a5.68 5.68 0 0 1-5.672-5.675v-7.822Z" fill="#FF7D4E"/><path fill-rule="evenodd" clip-rule="evenodd" d="M34.336 21.166v7.822c0 7.362-5.978 13.343-13.336 13.343-7.358 0-13.336-5.981-13.336-13.343v-7.822H0v7.822C0 40.583 9.412 50 21 50s21-9.417 21-21.012v-7.822h-7.664Z" fill="#725CF0"/><path fill-rule="evenodd" clip-rule="evenodd" d="M21 0C13.644 0 7.666 5.982 7.666 13.344v7.822h7.664v-7.822a5.68 5.68 0 0 1 5.672-5.675 5.68 5.68 0 0 1 5.671 5.675v7.822h7.665v-7.822C34.337 5.982 28.358 0 21 0Z" fill="#FDC672"/></svg></svg>